<svg style="object-fit:cover" id="my-svg" version="1" baseProfile="full" width="100%" height="100%" viewBox="0 0 1920 919" xmlns="http://www.w3.org/2000/svg"><rect width="1920" height="919" fill="#ababab"/><defs><linearGradient id="linear-gradient" x1="0" x2="0" y1="1" y2="0"><stop offset="0%" stop-color="#fafafa90"/><stop offset="100%" stop-color="#d1d1d190"/></linearGradient></defs><path transform="scale(-1, -1)" d="M 0,919 V 0,275 C 114.21428571428567,304.6071428571429 228.42857142857133,334.2142857142857 396,334 C 563.5714285714287,333.7857142857143 784.5000000000002,303.75 986,265 C 1187.4999999999998,226.25 1369.5714285714287,178.78571428571428 1522,179 C 1674.4285714285713,179.21428571428572 1797.2142857142858,227.10714285714286 1920,275 C 1920,275 1920,919 1920,919 Z" stroke="none" stroke-width="0" fill="url(#linear-gradient)" class="transition-all duration-300 ease-in-out delay-150" style="transform-origin: center center;"/><defs><linearGradient id="linear-gradient" x1="0" x2="0" y1="1" y2="0"><stop offset="0%" stop-color="#fafafaff"/><stop offset="100%" stop-color="#d1d1d1ff"/></linearGradient></defs><path transform="scale(-1, -1)" d="M 0,919 V 0,413 C 202.78571428571428,452.1428571428571 405.57142857142856,491.2857142857143 557,482 C 708.4285714285714,472.7142857142857 808.5,414.99999999999994 951,388 C 1093.5,361.00000000000006 1278.4285714285713,364.7142857142857 1447,374 C 1615.5714285714287,383.2857142857143 1767.7857142857142,398.1428571428571 1920,413 C 1920,413 1920,919 1920,919 Z" stroke="none" stroke-width="0" fill="url(#linear-gradient)" class="transition-all duration-300 ease-in-out delay-150" style="transform-origin: center center;"/></svg>