<svg style="object-fit:cover" id="my-svg" version="1" baseProfile="full" width="100%" height="100%" viewBox="0 0 1920 919" xmlns="http://www.w3.org/2000/svg"><rect width="1920" height="919" fill="#ababab"/><defs><linearGradient id="linear-gradient" x1="0" x2="0" y1="1" y2="0"><stop offset="0%" stop-color="#fafafa90"/><stop offset="100%" stop-color="#d1d1d190"/></linearGradient></defs><path transform="scale(-1, 1)" d="M 0,919 V 0,459 C 135.28571428571428,525.6785714285714 270.57142857142856,592.3571428571429 431,596 C 591.4285714285714,599.6428571428571 777,540.2499999999999 956,505 C 1135,469.7500000000001 1307.4285714285716,458.6428571428572 1467,455 C 1626.5714285714284,451.3571428571428 1773.2857142857142,455.1785714285714 1920,459 C 1920,459 1920,919 1920,919 Z" stroke="none" stroke-width="0" fill="url(#linear-gradient)" class="transition-all duration-300 ease-in-out delay-150" style="transform-origin: center center;"/><defs><linearGradient id="linear-gradient" x1="0" x2="0" y1="1" y2="0"><stop offset="0%" stop-color="#fafafaff"/><stop offset="100%" stop-color="#d1d1d1ff"/></linearGradient></defs><path transform="scale(-1, 1)" d="M 0,919 V 0,689 C 119.14285714285717,689.4285714285714 238.28571428571433,689.8571428571429 421,710 C 603.7142857142857,730.1428571428571 850,770.0000000000001 1041,748 C 1232,725.9999999999999 1367.7142857142856,642.1428571428571 1505,622 C 1642.2857142857144,601.8571428571429 1781.1428571428573,645.4285714285714 1920,689 C 1920,689 1920,919 1920,919 Z" stroke="none" stroke-width="0" fill="url(#linear-gradient)" class="transition-all duration-300 ease-in-out delay-150" style="transform-origin: center center;"/></svg>